# xmcd
#
# Track frame offsets:
#       150
#       15934
#       26297
#       46272
#       61557
#       77640
#       95642
#       109862
#       127362
#       142262
#       153315
#       166737
#       179297
#       192955
#       205965
#       221692
#       239605
#       251192
#       266650
#       281435
#       301315
#       322982
#
# Disc length: 4454 seconds
#
# Revision: 0
# Processed by: cddbd v1.4PL0 Copyright (c) Steve Scherf et al.
# Submitted via: WhereIsIt 3.26
#
DISCID=37116416
DTITLE=Various Artist - Das grosse Deutsche Country Festival [CD 3)
DYEAR=1900
DGENRE=
TTITLE0=Truck Stop - Ich möcht so gern Dave Dudley hör'n
TTITLE1=Jonny Hill - König der Landstraße
TTITLE2=Gunter Gabriel - Er ist ein Kerl
TTITLE3=Larry Schuba and Western Union - Auf der Autobahn
TTITLE4=Tom Astor - Und ich seh' die Trucks vorüberzieh'n
TTITLE5=Gudrun Lange and Kactus - Immer unterwegs
TTITLE6=Nashville Music Company - Desperados unterwegs
TTITLE7=Gunter Gabriel - Ich bin CB-Funker
TTITLE8=Truck Stop - Easy Rider
TTITLE9=Jonny Hill - Ich fahr' meine Tour
TTITLE10=Tom Astor - Der kleine Trucker
TTITLE11=Ralf Paulsen - Ich fahr 'nen Supertruck
TTITLE12=Nashville Music Company - Der Diesel rollt wieder durch die Nacht
TTITLE13=Truck Stop - Trucker, Cowboy, Mann
TTITLE14=Sammy' Saloon - Dieselknecht
TTITLE15=Tennessee - Easy Rider - Tagelang
TTITLE16=Jonny Hill - Mehr hinterm Lenkrad als zu Haus
TTITLE17=Truck Stop - Jeden Tag in einer anderen Stadt
TTITLE18=Tom Astor - Sonntagmorgen
TTITLE19=Larry Schuba and Western Union - Asphaltdesperados
TTITLE20=Jonny Hill - Ruf Teddybär Eins-Vier
TTITLE21=Ralf Paulsen - Goodbye Highways
EXTD=
EXTT0=
EXTT1=
EXTT2=
EXTT3=
EXTT4=
EXTT5=
EXTT6=
EXTT7=
EXTT8=
EXTT9=
EXTT10=
EXTT11=
EXTT12=
EXTT13=
EXTT14=
EXTT15=
EXTT16=
EXTT17=
EXTT18=
EXTT19=
EXTT20=
EXTT21=
PLAYORDER=
